<?xml version="1.0" encoding="UTF-8"?>
<!DOCTYPE svg PUBLIC "-//W3C//DTD SVG 1.1//EN" "http://www.w3.org/Graphics/SVG/1.1/DTD/svg11.dtd">
<!-- Creator: CorelDRAW X7 -->
<svg xmlns="http://www.w3.org/2000/svg" xml:space="preserve" width="210mm" height="297mm" version="1.1" style="shape-rendering:geometricPrecision; text-rendering:geometricPrecision; image-rendering:optimizeQuality; fill-rule:evenodd; clip-rule:evenodd"
viewBox="0 0 21000 29700"
 xmlns:xlink="http://www.w3.org/1999/xlink">
 <defs>
  <style type="text/css">
   <![CDATA[
    .fil0 {fill:black}
   ]]>
  </style>
 </defs>
 <g id="Capa_x0020_1">
  <metadata id="CorelCorpID_0Corel-Layer"/>
  <path class="fil0" d="M3353 7271c-393,584 -307,798 -316,1613 -37,3188 17,6459 -2,9666 -3,518 -49,1461 21,1932 53,355 272,706 533,914 93,75 192,116 269,193l393 147 3558 -3c2359,-1 4781,29 7126,3 1318,-15 2287,227 2898,-677 311,-460 260,-922 253,-1557 -7,-585 -3,-1178 1,-1763l-16 -9769c-41,-306 -163,-432 -241,-639 -48,-24 -51,19 -28,-53l-91 -75c-37,-34 -17,-18 -53,-55 -359,-368 -734,-459 -1276,-461l-11677 0c-719,1 -1049,232 -1352,584zm7878 5142l-893 -2 -1 1800 898 0 0 5265 2418 3 -11 -5257 1435 -12 75 -1728 -1592 0c56,-456 -117,-1335 172,-1591 320,-284 1204,-40 1639,-160l9 -1765c-301,-84 -2334,-23 -2632,62 -671,120 -1153,521 -1351,1116 -219,657 -167,1517 -166,2269z"/>
 </g>
</svg>
