<?xml version="1.0" encoding="UTF-8"?>
<!DOCTYPE svg PUBLIC "-//W3C//DTD SVG 1.1//EN" "http://www.w3.org/Graphics/SVG/1.1/DTD/svg11.dtd">
<!-- Creator: CorelDRAW X7 -->
<svg xmlns="http://www.w3.org/2000/svg" xml:space="preserve" width="70mm" height="20mm" version="1.1" shape-rendering="geometricPrecision" text-rendering="geometricPrecision" image-rendering="optimizeQuality" fill-rule="evenodd" clip-rule="evenodd"
viewBox="0 0 7000 2000"
 xmlns:xlink="http://www.w3.org/1999/xlink">
 <g id="Capa_x0020_1">
  <metadata id="CorelCorpID_0Corel-Layer"/>
  <path fill="#DB7E3A" d="M1254 772c-29,-30 -62,-92 -88,-134 -29,-49 -40,-101 -113,-112 -60,-8 -149,3 -195,22 -89,37 -44,91 -12,143 58,96 103,177 166,281 37,60 54,81 142,87 47,3 68,0 107,-11 47,-14 38,-16 74,-42l369 -304c25,-22 110,-79 116,-116 7,-52 -96,-73 -149,-74 -187,-3 -320,235 -417,260z"/>
  <path fill="#DB7E3A" d="M3374 627c54,-9 282,-24 308,17 36,58 -82,279 -71,374 69,57 259,56 310,-10 16,-21 84,-276 92,-318 26,-137 -117,-160 -235,-165 -128,-7 -373,-1 -469,5l65 97zm0 0l-65 -97c-126,2 -260,38 -308,129 -28,53 -92,309 -91,354 49,18 37,35 157,34 178,0 169,-70 217,-257 8,-33 13,-148 90,-163z"/>
  <path fill="#DB7E3A" d="M2546 680c-26,19 -64,12 -103,12 -41,0 -82,-1 -123,-1 -176,2 -490,-13 -590,127 -44,62 -37,140 19,175 111,71 283,55 420,54 39,-1 81,1 118,-7 45,-9 65,-16 65,-62 -78,-72 -288,7 -310,-62 -8,-25 13,-78 25,-97 31,-47 145,-32 207,-32 55,0 206,-20 227,29 31,71 -176,268 182,223 139,-17 117,-116 184,-318 58,-172 -120,-205 -269,-207 -70,-1 -558,-6 -607,6 -52,12 -135,89 26,88l362 0c62,1 212,-14 167,72z"/>
  <path fill="#DB7E3A" d="M886 1428c16,-63 37,-114 52,-179 130,-29 300,35 407,-42 -7,-44 -16,-55 -110,-60l-457 4c-100,1 -199,0 -301,4 -73,2 -242,-24 -234,71 49,53 273,18 361,28 -1,44 -52,195 -67,243 -23,69 -81,176 32,195 80,14 199,-4 241,-46 25,-24 68,-172 76,-218z"/>
  <path fill="#DB7E3A" d="M3681 1656c57,47 191,61 273,22 51,-24 54,-43 69,-99 68,-270 33,-328 192,-326 96,1 245,-11 330,15 13,118 -61,131 -159,130 -78,-1 -212,-25 -238,43 0,33 356,252 373,258 93,30 378,-38 214,-143 -47,-30 -79,-38 -94,-73 77,-21 138,-37 189,-86 71,-69 47,-139 -17,-181 -103,-68 -371,-51 -510,-54 -177,-3 -358,-14 -478,72 -64,46 -72,102 -93,190 -18,70 -55,155 -51,232z"/>
  <path fill="#DB7E3A" d="M3387 1156c-18,34 -39,83 -71,165l2 355c-32,7 -66,12 -103,15 -223,8 -609,26 -663,-100 -24,-55 53,-302 77,-365 42,-111 297,-84 322,-32 20,48 -33,191 -48,243 -35,118 -48,152 89,155 75,2 214,12 254,-37 26,-32 47,-188 70,-234l2 355c33,-7 63,-16 91,-27l2 -1c59,-24 107,-58 142,-101 11,-17 21,-38 28,-62 20,-74 76,-234 71,-312 -59,-51 -192,-48 -265,-17z"/>
  <path fill="#DB7E3A" d="M2490 1354c59,-157 -95,-191 -223,-199 -134,-8 -292,-5 -426,-2 -130,4 -261,8 -364,66 -110,62 -110,161 -145,285 -23,79 -15,115 43,150 44,28 114,43 174,44 128,3 286,-4 415,-7 147,-4 406,10 480,-169 21,-52 27,-119 46,-168zm-558 -108c-220,3 -191,2 -251,185 -59,183 -54,159 203,159 208,0 208,17 257,-177 47,-184 56,-170 -209,-167z"/>
  <path fill="#DB7E3A" d="M4888 1652c52,54 200,39 311,40 182,3 473,30 623,-64 83,-52 116,-144 5,-201 -105,-54 -396,-39 -478,-51 -62,-9 -84,-59 -29,-91 54,-31 399,-12 502,-9 75,3 93,6 149,-28 6,-56 -50,-68 -101,-70 -235,-8 -644,-43 -828,55 -114,62 -97,151 8,203 143,71 418,25 495,57 58,23 46,73 -8,91 -70,24 -500,-21 -606,13 -32,11 -40,15 -43,55z"/>
  <path fill="#DB7E3A" d="M4047 1004c33,67 234,40 315,40 193,0 471,16 628,-72 101,-57 103,-155 -20,-201 -61,-22 -242,-33 -319,-37 -39,-2 -140,0 -169,-11 -61,-23 -35,-82 19,-96 135,-36 716,56 630,-59 -37,-50 -580,-48 -662,-42 -380,28 -423,200 -243,266 168,62 400,20 487,51 43,15 56,70 -31,92 -143,38 -609,-46 -635,69z"/>
  <path fill="black" d="M5378 409c-572,-74 -1210,-111 -1914,-112 1328,-98 2365,-35 3112,190 273,110 274,184 2,220 -388,20 -804,20 -1248,-1 694,-95 711,-194 48,-297z"/>
 </g>
</svg>
