<?xml version="1.0" encoding="UTF-8"?>
<!DOCTYPE svg PUBLIC "-//W3C//DTD SVG 1.1//EN" "http://www.w3.org/Graphics/SVG/1.1/DTD/svg11.dtd">
<!-- Creator: CorelDRAW X7 -->
<?xml-stylesheet href="vanstour.css" type="text/css"?>
<svg xmlns="http://www.w3.org/2000/svg" xml:space="preserve" width="34mm" height="8mm" version="1.1" style="shape-rendering:geometricPrecision; text-rendering:geometricPrecision; image-rendering:optimizeQuality; fill-rule:evenodd; clip-rule:evenodd"
viewBox="0 0 3400 800"
 xmlns:xlink="http://www.w3.org/1999/xlink">
 <g id="Capa_x0020_1">
  <metadata id="CorelCorpID_0Corel-Layer"/>
  <path class="fil0" d="M595 277c-15,-15 -31,-46 -44,-67 -14,-24 -19,-50 -56,-55 -29,-4 -74,2 -96,11 -44,18 -22,45 -6,70 29,48 51,88 82,139 18,30 27,40 70,44 23,1 34,0 53,-6 24,-7 19,-7 37,-21l182 -150c13,-11 55,-39 58,-57 3,-26 -48,-37 -74,-37 -93,-1 -158,116 -206,129z"/>
  <path class="fil0" d="M1644 205c27,-5 139,-12 152,8 18,29 -41,138 -35,185 34,29 128,28 153,-5 8,-10 42,-136 46,-157 13,-68 -58,-79 -116,-82 -64,-3 -185,0 -232,3l32 48zm0 0l-32 -48c-63,1 -129,19 -153,64 -14,26 -45,153 -45,175 24,9 18,17 78,17 88,-1 84,-35 107,-128 4,-16 7,-73 45,-80z"/>
  <path class="fil0" d="M1234 231c-13,9 -32,6 -51,6 -20,0 -41,-1 -61,0 -87,1 -242,-7 -292,62 -22,31 -18,70 10,87 55,35 140,27 207,27 20,-1 41,0 59,-4 22,-4 32,-8 32,-30 -38,-36 -142,3 -153,-31 -4,-12 6,-39 12,-48 15,-24 72,-16 103,-16 26,0 101,-10 112,14 15,36 -87,133 90,111 69,-9 58,-58 91,-157 29,-86 -60,-102 -133,-103 -35,-1 -276,-3 -301,3 -25,6 -66,44 13,43l179 1c31,0 105,-7 83,35z"/>
  <path class="fil0" d="M413 601c8,-31 18,-56 25,-88 65,-15 149,17 202,-21 -4,-22 -8,-27 -55,-30l-225 2c-50,1 -99,0 -150,2 -36,1 -119,-12 -116,35 25,27 136,9 179,14 0,22 -26,97 -33,120 -11,35 -40,88 16,97 40,7 99,-2 119,-23 13,-12 34,-85 38,-108z"/>
  <path class="fil0" d="M1796 714c28,23 94,30 135,11 25,-12 27,-21 34,-49 34,-134 16,-162 95,-162 47,1 121,-5 163,8 7,58 -30,65 -78,64 -39,0 -105,-12 -118,22 -1,16 176,124 184,127 46,15 187,-18 106,-71 -23,-14 -39,-18 -46,-36 38,-10 68,-18 93,-42 35,-34 23,-69 -8,-90 -51,-33 -184,-25 -253,-26 -87,-2 -177,-7 -236,35 -32,23 -36,51 -46,94 -9,35 -27,77 -25,115z"/>
  <path class="fil0" d="M1650 466c-9,18 -19,42 -35,82l1 176c-16,3 -33,6 -51,7 -111,4 -301,13 -328,-49 -12,-27 26,-149 38,-181 21,-55 147,-41 159,-16 10,24 -16,95 -23,121 -18,58 -24,75 44,76 37,1 106,6 125,-18 13,-16 24,-93 35,-116l1 176c16,-3 31,-8 45,-14l1 0c29,-12 53,-29 70,-50 6,-9 11,-19 14,-30 10,-37 38,-116 35,-155 -29,-25 -95,-24 -131,-9z"/>
  <path class="fil0" d="M1206 565c29,-78 -47,-95 -110,-99 -66,-4 -145,-2 -211,-1 -64,2 -129,4 -180,33 -54,30 -54,79 -72,141 -11,39 -7,57 21,74 22,14 57,21 87,22 63,2 141,-2 205,-4 73,-2 201,5 238,-83 10,-26 13,-59 22,-83zm-276 -54c-109,2 -94,1 -124,92 -29,90 -27,79 100,79 103,0 103,8 128,-88 23,-91 27,-84 -104,-83z"/>
  <path class="fil0" d="M2393 712c25,27 99,19 154,20 90,1 234,15 308,-32 41,-25 58,-71 2,-99 -52,-27 -196,-20 -236,-25 -31,-5 -41,-30 -15,-45 27,-16 198,-7 249,-5 37,2 46,3 74,-14 3,-28 -25,-34 -50,-34 -117,-4 -319,-22 -410,27 -57,30 -48,75 4,100 71,35 207,13 245,28 28,12 23,37 -4,46 -35,11 -248,-11 -300,6 -16,5 -20,7 -21,27z"/>
  <path class="fil0" d="M1977 391c16,34 115,20 156,20 95,0 233,8 310,-35 50,-28 51,-77 -10,-100 -30,-11 -120,-16 -157,-18 -20,-1 -70,0 -84,-5 -30,-12 -17,-41 9,-48 67,-18 355,28 312,-29 -18,-25 -287,-24 -328,-21 -188,14 -209,99 -120,131 83,31 198,10 241,26 21,7 28,34 -15,46 -71,18 -302,-23 -314,33z"/>
  <path class="fil1" d="M2635 97c-283,-37 -598,-55 -947,-55 657,-49 1170,-18 1540,94 135,54 135,91 1,108 -192,11 -398,11 -618,0 344,-47 352,-96 24,-147z"/>
 </g>
</svg>
