<?xml version="1.0" encoding="UTF-8"?>
<!DOCTYPE svg PUBLIC "-//W3C//DTD SVG 1.1//EN" "http://www.w3.org/Graphics/SVG/1.1/DTD/svg11.dtd">
<!-- Creator: CorelDRAW X7 -->
<svg xmlns="http://www.w3.org/2000/svg" xml:space="preserve" width="170mm" height="39mm" version="1.1" style="shape-rendering:geometricPrecision; text-rendering:geometricPrecision; image-rendering:optimizeQuality; fill-rule:evenodd; clip-rule:evenodd"
viewBox="0 0 17000 3900"
 xmlns:xlink="http://www.w3.org/1999/xlink">
 <defs>
  <style type="text/css">
   <![CDATA[
    .fil0 {fill:#DB7E3A}
    .fil1 {fill:black}
   ]]>
  </style>
 </defs>
 <g id="Capa_x0020_1">
  <metadata id="CorelCorpID_0Corel-Layer"/>
  <path class="fil0" d="M2767 1403c-73,-77 -156,-235 -222,-343 -76,-123 -102,-255 -290,-283 -150,-22 -378,8 -495,56 -227,94 -110,232 -31,363 148,244 262,449 423,714 95,154 138,206 362,222 118,8 172,1 273,-29 119,-35 96,-38 188,-105l938 -774c62,-56 281,-202 294,-295 18,-133 -244,-187 -379,-188 -476,-7 -813,597 -1061,662z"/>
  <path class="fil0" d="M8162 1034c137,-24 717,-63 783,42 92,147 -209,710 -180,952 174,146 658,142 788,-26 41,-53 212,-702 232,-808 69,-350 -297,-406 -596,-421 -325,-16 -949,-2 -1193,15l166 246zm0 0l-166 -246c-320,4 -662,95 -785,327 -71,135 -232,786 -230,901 123,46 93,88 398,87 455,-2 431,-179 552,-656 21,-83 35,-376 231,-413z"/>
  <path class="fil0" d="M6056 1169c-66,47 -165,31 -264,30 -105,0 -208,-4 -313,-3 -446,5 -1247,-32 -1500,323 -113,158 -94,357 47,446 284,179 721,139 1069,136 99,-1 206,5 302,-16 112,-24 164,-42 163,-159 -197,-184 -731,18 -787,-157 -20,-64 32,-199 63,-247 79,-121 370,-81 527,-82 138,-1 523,-50 576,73 79,183 -445,682 463,570 356,-44 298,-296 470,-810 148,-439 -306,-522 -685,-528 -177,-2 -1419,-16 -1545,15 -133,32 -342,228 67,225l921 0c158,2 539,-35 426,184z"/>
  <path class="fil0" d="M1832 3071c40,-161 94,-289 131,-454 331,-74 765,88 1037,-108 -19,-112 -41,-140 -280,-154l-1162 12c-256,2 -508,0 -766,10 -185,6 -617,-61 -597,181 126,134 695,45 919,71 -3,111 -132,495 -171,618 -56,175 -206,448 83,497 204,34 507,-12 613,-117 63,-63 173,-438 193,-556z"/>
  <path class="fil0" d="M8943 3651c143,119 485,155 694,55 129,-61 138,-108 174,-251 175,-687 85,-835 488,-830 246,3 625,-27 841,39 34,299 -155,334 -404,331 -198,-2 -539,-63 -607,109 0,83 906,642 950,656 236,76 961,-96 544,-364 -118,-76 -200,-96 -239,-185 196,-53 352,-93 481,-218 181,-176 120,-354 -43,-461 -262,-172 -944,-130 -1298,-137 -449,-8 -911,-36 -1215,182 -164,118 -183,260 -238,484 -44,179 -138,395 -128,590z"/>
  <path class="fil0" d="M8195 2378c-48,89 -100,212 -182,420l5 905c-81,17 -169,29 -262,37 -568,21 -1549,66 -1687,-254 -60,-141 135,-768 196,-929 109,-282 757,-212 819,-82 51,123 -82,486 -121,620 -89,299 -122,386 225,394 192,4 545,30 647,-94 67,-81 120,-480 178,-597l5 905c84,-18 162,-42 233,-70l4 -2c151,-62 271,-147 361,-257 29,-45 53,-96 70,-157 54,-189 194,-596 183,-793 -152,-131 -489,-125 -674,-46z"/>
  <path class="fil0" d="M5912 2882c150,-397 -241,-484 -566,-504 -342,-22 -744,-14 -1085,-6 -330,9 -663,20 -926,168 -280,156 -280,409 -370,725 -57,201 -36,291 110,382 113,70 291,108 443,111 327,9 728,-11 1057,-19 374,-9 1032,27 1221,-430 54,-130 68,-301 116,-427zm-1420 -273c-560,7 -486,5 -637,469 -152,467 -139,406 515,406 529,0 529,42 654,-450 120,-470 143,-434 -532,-425z"/>
  <path class="fil0" d="M12013 3641c132,138 510,98 791,103 462,6 1202,75 1585,-163 212,-133 296,-367 12,-513 -266,-137 -1008,-98 -1215,-128 -158,-23 -213,-150 -75,-232 137,-81 1015,-32 1277,-23 191,7 238,15 380,-72 16,-143 -127,-173 -257,-178 -598,-20 -1639,-111 -2107,141 -290,156 -246,383 19,516 365,181 1066,63 1262,144 146,60 116,187 -22,233 -178,60 -1272,-53 -1541,33 -82,26 -102,36 -109,139z"/>
  <path class="fil0" d="M9872 1992c86,171 596,103 803,103 490,-1 1199,40 1597,-184 257,-144 263,-394 -50,-510 -156,-58 -618,-86 -812,-96 -100,-4 -356,2 -431,-27 -154,-58 -88,-209 48,-245 345,-90 1823,142 1605,-151 -95,-126 -1477,-121 -1686,-105 -966,71 -1076,507 -617,676 426,157 1018,50 1238,130 109,39 143,177 -78,235 -364,96 -1551,-117 -1617,174z"/>
  <path class="fil1" d="M13260 478c-1456,-188 -3079,-282 -4870,-284 3378,-249 6017,-88 7916,483 696,281 698,467 5,559 -987,53 -2045,52 -3174,-1 1766,-242 1807,-495 123,-757z"/>
 </g>
</svg>
