<?xml version="1.0" encoding="UTF-8"?>
<!DOCTYPE svg PUBLIC "-//W3C//DTD SVG 1.1//EN" "http://www.w3.org/Graphics/SVG/1.1/DTD/svg11.dtd">
<!-- Creator: CorelDRAW X7 -->
<svg xmlns="http://www.w3.org/2000/svg" xml:space="preserve" width="90mm" height="20mm" version="1.1" shape-rendering="geometricPrecision" text-rendering="geometricPrecision" image-rendering="optimizeQuality" fill-rule="evenodd" clip-rule="evenodd"
viewBox="0 0 9000 2000"
 xmlns:xlink="http://www.w3.org/1999/xlink">
 <g id="Capa_x0020_1">
  <metadata id="CorelCorpID_0Corel-Layer"/>
  <path fill="#DB7E3A" d="M1520 705c-39,-40 -82,-122 -116,-178 -40,-65 -53,-134 -151,-148 -78,-11 -197,4 -258,29 -118,49 -57,121 -16,189 77,127 136,234 220,372 50,81 72,107 189,116 61,4 89,0 142,-15 62,-18 50,-20 98,-55l488 -403c33,-29 147,-105 153,-154 10,-69 -127,-97 -197,-98 -248,-4 -423,311 -552,345z"/>
  <path fill="#DB7E3A" d="M4330 513c71,-13 373,-33 408,22 48,76 -109,370 -94,495 90,76 342,74 410,-13 22,-27 111,-366 121,-421 36,-182 -155,-211 -310,-219 -170,-9 -494,-1 -622,8l87 128zm0 0l-87 -128c-166,2 -345,49 -409,170 -37,70 -121,410 -119,469 64,25 48,46 207,46 237,-2 225,-93 288,-342 10,-43 17,-196 120,-215z"/>
  <path fill="#DB7E3A" d="M3233 583c-35,25 -86,16 -138,16 -54,0 -108,-2 -163,-2 -232,3 -649,-17 -781,168 -59,83 -49,187 24,233 148,93 376,72 557,71 52,-1 108,2 157,-9 59,-12 86,-21 85,-82 -102,-96 -380,9 -409,-82 -11,-34 16,-104 32,-129 41,-63 193,-42 275,-43 72,0 272,-26 300,39 41,94 -232,355 241,296 185,-23 155,-154 245,-421 77,-229 -160,-273 -357,-276 -92,-1 -739,-8 -805,8 -69,17 -178,119 35,117l480 1c82,0 280,-19 222,95z"/>
  <path fill="#DB7E3A" d="M1033 1574c21,-84 48,-151 68,-237 172,-38 398,46 540,-56 -10,-58 -21,-73 -146,-80l-605 6c-133,1 -265,0 -399,5 -97,3 -321,-31 -311,95 65,70 362,23 478,36 -1,59 -68,259 -89,322 -29,92 -107,234 44,259 106,18 264,-6 319,-61 33,-32 90,-228 101,-289z"/>
  <path fill="#DB7E3A" d="M4736 1876c75,62 253,81 362,29 67,-32 72,-57 91,-131 91,-358 44,-435 254,-432 128,1 325,-15 438,20 18,156 -81,174 -210,172 -104,-1 -282,-33 -317,57 0,43 472,334 495,342 123,39 501,-50 283,-190 -61,-40 -104,-50 -124,-96 102,-28 183,-49 251,-114 94,-91 62,-184 -23,-240 -136,-90 -491,-68 -676,-71 -234,-4 -475,-19 -633,94 -86,62 -95,136 -124,253 -23,93 -72,205 -67,307z"/>
  <path fill="#DB7E3A" d="M4347 1213c-25,46 -52,110 -95,219l2 471c-42,9 -87,15 -136,19 -296,11 -807,35 -879,-132 -31,-73 71,-400 103,-484 56,-147 394,-110 426,-42 27,64 -43,252 -63,322 -46,156 -63,201 117,206 100,2 284,15 337,-49 35,-43 63,-250 93,-311l2 471c45,-10 85,-22 122,-37l2 0c79,-33 141,-77 188,-134 15,-24 28,-50 37,-82 28,-98 101,-311 95,-413 -79,-68 -255,-65 -351,-24z"/>
  <path fill="#DB7E3A" d="M3158 1476c78,-208 -126,-253 -295,-263 -178,-11 -388,-7 -565,-3 -172,4 -346,10 -483,87 -145,82 -146,213 -192,378 -30,105 -19,151 57,199 59,36 152,56 231,58 170,4 379,-6 550,-10 195,-5 538,14 636,-224 28,-68 36,-157 61,-222zm-740 -143c-292,4 -253,3 -332,244 -79,244 -72,212 269,212 275,0 275,22 340,-234 63,-245 75,-226 -277,-222z"/>
  <path fill="#DB7E3A" d="M6336 1871c68,72 265,51 411,53 241,4 627,40 826,-85 111,-69 154,-191 7,-267 -139,-71 -526,-51 -633,-67 -83,-11 -112,-78 -40,-120 72,-42 529,-17 666,-12 99,4 123,7 198,-38 8,-74 -67,-90 -134,-92 -312,-11 -854,-58 -1098,73 -151,81 -128,200 10,269 190,94 555,33 657,75 77,31 61,97 -11,121 -93,31 -662,-28 -803,17 -42,14 -53,19 -56,73z"/>
  <path fill="#DB7E3A" d="M5221 1012c44,89 310,54 418,53 255,0 624,21 831,-95 134,-75 137,-206 -26,-266 -81,-30 -321,-45 -423,-50 -51,-2 -185,1 -224,-14 -80,-30 -46,-109 25,-127 179,-48 950,74 836,-79 -49,-66 -769,-63 -878,-55 -504,37 -561,264 -322,352 222,82 531,26 645,68 57,20 75,92 -40,122 -190,50 -808,-61 -842,91z"/>
  <path fill="black" d="M6985 223c-758,-97 -1604,-147 -2536,-148 1759,-130 3133,-46 4122,252 363,146 364,243 3,291 -514,28 -1065,27 -1653,-1 920,-126 941,-257 64,-394z"/>
 </g>
</svg>
